<svg width="960" height="960" viewBox="0 0 960 960" fill="none" xmlns="http://www.w3.org/2000/svg">
<g clip-path="url(#clip0_38_4079)">
<path fill-rule="evenodd" clip-rule="evenodd" d="M359.467 316.873C347.824 328.635 337.429 341.57 328.45 355.473C321.053 366.878 314.35 378.718 308.378 390.93C295.005 418.024 284.658 446.475 274.334 474.869C273.718 476.573 273.157 478.669 274.357 480.037C274.624 480.341 274.958 480.579 275.332 480.732C276.217 481.084 277.16 481.263 278.112 481.258C288.822 481.793 299.534 482.335 310.25 482.884C311.687 482.981 313.13 482.977 314.566 482.873C316.404 482.789 318.177 482.169 319.666 481.09C321.673 479.51 322.633 476.965 323.433 474.533C327.139 463.308 329.588 451.741 332.038 440.171C333.405 433.716 334.772 427.259 336.358 420.86C340.786 402.992 347.164 385.112 359.024 371.044C369.382 358.747 384.627 349.757 400.489 349.163L400.5 349.376C398.422 378.643 392.543 407.515 383.013 435.265C381.367 440.141 380.031 446.531 384.167 449.591C386.156 451.048 388.801 451.16 391.267 451.205C396.745 451.303 402.219 451.34 407.69 451.317C443.969 451.251 480.209 448.93 516.2 444.367C518.024 444.142 519.841 443.9 521.662 443.657C522.102 443.599 522.542 443.54 522.982 443.482C527.634 442.854 532.858 441.834 535.391 437.888C538.364 433.269 536.111 427.216 533.891 422.194C524.735 401.501 517.121 380.159 511.113 358.343C507.553 345.332 504.578 332.056 502.19 318.515L502.033 318.19C537.22 301.869 564.18 270.483 580.972 235.383C598.498 198.783 605.959 158.193 610.398 117.849C610.936 112.964 611.419 107.95 610.275 103.164C609.131 98.378 606.037 93.77 601.385 92.145C597.955 90.945 594.177 91.472 590.59 92.033C590.579 92.033 590.571 92.0357 590.563 92.0384C590.554 92.0412 590.546 92.044 590.534 92.044C579.63 93.7514 568.73 95.4627 557.834 97.178C555.844 97.3425 553.918 97.964 552.207 98.994C551.862 99.2417 551.546 99.5275 551.265 99.846C549.505 101.864 549.539 104.834 549.685 107.513C549.804 109.713 549.928 111.914 550.051 114.116C551.308 136.555 552.571 159.087 549.539 181.33C546.21 205.756 537.175 230.182 519.665 247.512C508.676 258.408 494.531 265.563 479.242 267.959C474.738 268.626 470.173 268.781 465.634 268.419L465.6 268.8C461.355 299.43 459.254 330.319 459.313 361.242L458.887 361.432C447.652 336.384 433.533 312.732 416.816 290.956L416.783 290.923C411.809 296.027 406.177 300.445 400.035 304.061C387.727 311.325 373.715 315.394 359.467 316.873ZM602.711 111.857C602.767 110.93 602.062 110.133 601.135 110.077C600.208 110.02 599.41 110.726 599.354 111.653C596.142 164.416 579.182 215.421 550.159 259.602C549.649 260.378 549.865 261.42 550.641 261.93C551.417 262.44 552.46 262.224 552.97 261.448C582.315 216.777 599.463 165.206 602.711 111.857Z" fill="url(#paint0_linear_38_4079)"/>
<path d="M809.137 483.432C811.347 487.772 812.5 492.574 812.5 497.444C812.5 502.315 811.347 507.117 809.137 511.457C802.411 522.666 792.322 529.392 784.475 538.357C783.96 538.873 783.444 539.388 782.928 539.893L782.628 539.593L554.54 314.478L554.305 314.243C560.986 307.461 567.79 300.69 574.853 293.987C584.941 285.019 598.393 281.656 610.724 287.261C617.45 290.624 621.934 296.229 627.538 300.713C685.829 360.125 743.001 413.932 801.29 473.343C803.532 476.706 806.895 478.948 809.137 483.432ZM703.025 431.284C703.238 431.069 703.407 430.814 703.522 430.533C703.636 430.252 703.694 429.952 703.692 429.648C703.69 429.345 703.628 429.045 703.51 428.766C703.391 428.487 703.219 428.234 703.003 428.022L673.342 398.742C673.126 398.529 672.871 398.36 672.59 398.245C672.31 398.131 672.009 398.073 671.706 398.075C671.403 398.077 671.103 398.139 670.824 398.258C670.545 398.376 670.292 398.549 670.08 398.765L669.519 399.325C669.305 399.54 669.136 399.796 669.022 400.076C668.908 400.357 668.85 400.658 668.852 400.961C668.854 401.264 668.916 401.564 669.034 401.843C669.153 402.122 669.325 402.375 669.542 402.587L699.203 431.867C699.418 432.081 699.673 432.249 699.954 432.364C700.235 432.478 700.535 432.536 700.838 432.534C701.141 432.532 701.441 432.47 701.72 432.352C701.999 432.234 702.252 432.061 702.465 431.845L703.025 431.284ZM701.938 406.522C702.61 405.842 703.065 404.978 703.245 404.04C703.426 403.101 703.325 402.13 702.953 401.25C702.582 400.369 701.958 399.618 701.16 399.092C700.362 398.566 699.426 398.289 698.47 398.295C697.514 398.301 696.582 398.591 695.791 399.128C694.999 399.664 694.385 400.423 694.026 401.308C693.666 402.194 693.577 403.166 693.77 404.102C693.963 405.038 694.43 405.896 695.111 406.567C696.023 407.465 697.254 407.964 698.533 407.956C699.813 407.947 701.037 407.432 701.938 406.522V406.522ZM660.047 389.169C660.526 388.683 660.85 388.067 660.978 387.397C661.106 386.727 661.033 386.034 660.768 385.406C660.503 384.778 660.057 384.243 659.487 383.868C658.918 383.493 658.25 383.295 657.568 383.3C656.886 383.305 656.22 383.512 655.656 383.894C655.092 384.277 654.654 384.819 654.397 385.451C654.14 386.083 654.077 386.776 654.215 387.444C654.352 388.112 654.685 388.724 655.171 389.203C655.822 389.845 656.701 390.201 657.616 390.195C658.53 390.189 659.404 389.82 660.047 389.169V389.169Z" fill="url(#paint1_linear_38_4079)"/>
<path d="M688.834 686.015C692.934 744.215 686.278 802.915 674.945 860.148L674.754 860.383C672.366 859.868 669.99 859.341 667.602 858.825C646.83 854.307 626.058 849.789 605.287 845.272C601.139 844.376 596.991 843.476 592.844 842.572C616.777 800.916 626.507 751.481 621.244 703.795C622.588 702.472 623.941 701.135 625.302 699.782C644.818 679.682 663.751 660.182 682.696 640.661C685.732 655.628 687.783 670.779 688.834 686.015V686.015Z" fill="#171717"/>
<path d="M618.4 870.8L618.321 870.834C615.769 877.727 612.696 884.416 609.129 890.843C608.297 892.637 607.019 894.188 605.419 895.349C602.168 897.349 597.975 895.876 594.467 894.385C592.101 893.376 589.49 892.085 588.716 889.644C588.1 887.682 588.895 885.575 589.669 883.669C594.937 870.822 600.004 858.245 605.262 845.399L605.284 845.275C626.045 849.793 646.817 854.311 667.599 858.828L667.566 858.963C674.766 878.871 688.674 897.804 705.791 910.27C688.924 915.734 670.627 914.718 654.469 907.42C638.311 900.123 625.452 887.067 618.4 870.8V870.8Z" fill="url(#paint2_linear_38_4079)"/>
<path d="M359.467 316.877C347.823 328.639 337.429 341.574 328.45 355.477C302.824 368.749 269.912 359.523 243.805 372.056C220.925 383.03 208.034 408.443 185.929 420.919C178.501 425.109 170.271 427.685 161.779 428.477C153.288 429.268 144.724 428.259 136.649 425.515C128.574 422.77 121.169 418.352 114.918 412.549C108.668 406.747 103.712 399.69 100.376 391.841L101.855 390.956C120.049 399.912 142.726 391.617 157.366 377.571C172.006 363.525 180.907 344.738 191.566 327.471C202.225 310.204 216.116 293.314 235.5 287.3C270 276.583 309.115 303.834 342.329 289.6C366.408 279.276 376.99 251.576 385.162 226.679C393.334 201.782 404.084 174.094 428.262 164.005C435.474 161.079 443.303 159.998 451.039 160.861C458.774 161.725 466.172 164.504 472.562 168.949C487.471 179.531 494.862 198.549 494.679 216.837C494.496 235.125 488.11 251.789 479.21 267.763L479.243 267.963C474.739 268.631 470.174 268.785 465.635 268.422C463.165 268.234 460.711 267.87 458.292 267.335C456.121 266.873 453.982 266.266 451.892 265.519L451.41 265.373C453.192 261.102 456.947 257.706 459.301 253.726C471.801 232.585 473.74 205.826 464.009 183.273L463.931 183.228C455.944 197.957 443.8 210.011 429.013 217.889L429.057 217.967C437.992 232.473 438.294 249.915 432.577 265.979C430.453 271.87 427.509 277.432 423.834 282.502C421.701 285.487 419.344 288.305 416.783 290.932C411.809 296.036 406.177 300.454 400.035 304.069C387.727 311.329 373.715 315.4 359.467 316.877Z" fill="#171717"/>
<path d="M324.246 732.838L373.939 781.881L459.828 866.649L459.928 866.749C450.502 876.334 440.981 886.068 431.366 895.949C419.035 909.4 397.736 912.763 384.284 899.312C320.384 835.412 257.614 776.004 195.96 712.112C189.234 700.902 189.234 684.087 200.119 673.729C210.623 662.979 221.142 652.225 231.675 641.468L231.742 641.535L324.246 732.838ZM329.279 797.283C331.861 794.665 333.607 791.34 334.299 787.729C334.991 784.118 334.597 780.383 333.166 776.996C331.735 773.609 329.333 770.722 326.261 768.701C323.19 766.679 319.589 765.614 315.912 765.639C312.236 765.664 308.649 766.779 305.606 768.842C302.563 770.905 300.2 773.825 298.815 777.231C297.431 780.637 297.088 784.377 297.829 787.978C298.57 791.58 300.363 794.88 302.979 797.463C304.718 799.179 306.777 800.535 309.04 801.455C311.303 802.374 313.724 802.839 316.167 802.822C318.609 802.805 321.024 802.308 323.274 801.357C325.524 800.407 327.565 799.022 329.279 797.283V797.283Z" fill="url(#paint3_linear_38_4079)"/>
<path d="M329.111 770.985C331.731 773.568 333.525 776.87 334.268 780.473C335.011 784.077 334.668 787.819 333.284 791.228C331.9 794.636 329.536 797.558 326.491 799.623C323.446 801.688 319.857 802.803 316.178 802.828C312.5 802.853 308.896 801.787 305.823 799.764C302.75 797.741 300.346 794.852 298.916 791.463C297.485 788.074 297.091 784.336 297.785 780.723C298.478 777.11 300.227 773.784 302.811 771.165C304.526 769.426 306.566 768.041 308.816 767.091C311.066 766.14 313.481 765.643 315.924 765.626C318.366 765.609 320.788 766.074 323.051 766.993C325.313 767.913 327.373 769.269 329.111 770.985V770.985Z" fill="url(#paint4_linear_38_4079)"/>
<path d="M451.612 279.291C449.799 274.84 449.727 269.87 451.412 265.368C453.194 261.097 456.949 257.701 459.303 253.721C471.803 232.58 473.742 205.821 464.011 183.268" stroke="#171717" stroke-width="3.363" stroke-linecap="round" stroke-linejoin="round"/>
<path d="M466.509 178C465.709 179.771 464.85 181.519 463.931 183.223C455.944 197.952 443.801 210.006 429.012 217.884C425.241 219.892 421.317 221.597 417.276 222.984" stroke="#171717" stroke-width="3.363" stroke-linecap="round" stroke-linejoin="round"/>
<path d="M429.058 217.962C437.992 232.468 438.295 249.91 432.578 265.974C430.453 271.865 427.51 277.427 423.835 282.497C421.701 285.481 419.344 288.3 416.784 290.927C411.81 296.031 406.177 300.449 400.036 304.065C387.728 311.329 373.716 315.398 359.468 316.877C356.733 317.158 353.975 317.348 351.229 317.449" stroke="#171717" stroke-width="3.363" stroke-linecap="round" stroke-linejoin="round"/>
<path d="M359.635 316.7C359.579 316.756 359.512 316.823 359.467 316.879C347.824 328.64 337.429 341.576 328.45 355.479C321.055 366.884 314.354 378.724 308.384 390.935C295.011 418.029 284.664 446.48 274.34 474.874C273.724 476.574 273.163 478.674 274.362 480.042C274.629 480.346 274.963 480.584 275.338 480.737C276.223 481.089 277.166 481.268 278.118 481.263C288.823 481.802 299.536 482.344 310.256 482.889C311.693 482.986 313.136 482.982 314.572 482.878C316.41 482.794 318.183 482.174 319.672 481.095C321.679 479.515 322.643 476.97 323.439 474.538C329.212 457.05 331.947 438.738 336.364 420.865C340.781 402.992 347.17 385.117 359.03 371.049C369.388 358.749 384.63 349.762 400.495 349.167C402.804 349.076 405.117 349.17 407.411 349.448" stroke="#171717" stroke-width="3.363" stroke-linecap="round" stroke-linejoin="round"/>
<path d="M292.422 509.058C290.988 517.644 289.554 526.231 288.122 534.818C287.653 536.761 287.595 538.781 287.954 540.748C288.436 542.687 289.983 544.503 291.967 544.66C295.027 544.895 296.955 541.499 298.009 538.618C303.212 524.522 306.972 509.934 309.23 495.079" stroke="#171717" stroke-width="3.363" stroke-linecap="round" stroke-linejoin="round"/>
<path d="M292.421 509.058C293.083 505.639 293.666 502.197 294.148 498.758C293.576 502.198 293 505.631 292.421 509.058Z" stroke="#171717" stroke-width="3.363" stroke-linecap="round" stroke-linejoin="round"/>
<path d="M280.752 503.24C277.116 513.433 274.704 524.022 273.567 534.784C273.267 537.542 273.286 540.837 275.54 542.452C277.568 543.898 280.562 543.152 282.355 541.409C284.148 539.666 285.023 537.217 285.785 534.84C288.539 526.395 290.756 517.783 292.421 509.058" stroke="#171717" stroke-width="3.363" stroke-linecap="round" stroke-linejoin="round"/>
<path d="M280.786 503.15C281.313 501.738 281.851 500.314 282.377 498.902C281.817 500.314 281.29 501.726 280.786 503.15Z" stroke="#171717" stroke-width="3.363" stroke-linecap="round" stroke-linejoin="round"/>
<path d="M280.786 503.15C280.774 503.184 280.763 503.206 280.752 503.24" stroke="#171717" stroke-width="3.363" stroke-linecap="round" stroke-linejoin="round"/>
<path d="M275.227 480.988C264.844 497.896 258.541 516.99 256.82 536.757C256.562 539.481 256.686 542.81 259.062 544.178C260.912 545.232 263.378 544.469 264.891 542.967C266.299 541.361 267.339 539.468 267.94 537.418C272.21 526.018 276.481 514.625 280.753 503.24" stroke="#171717" stroke-width="3.363" stroke-linecap="round" stroke-linejoin="round"/>
<path d="M314.583 482.973C320.67 483.925 326.903 484.609 331.936 488.151C333.023 488.84 333.929 489.778 334.581 490.887C334.899 491.445 335.068 492.075 335.072 492.717C335.076 493.358 334.915 493.99 334.604 494.552C333.651 496.052 331.622 496.346 329.851 496.435C322.953 496.768 316.039 496.215 309.281 494.788C308.395 494.597 307.521 494.395 306.647 494.182" stroke="#171717" stroke-width="3.363" stroke-linecap="round" stroke-linejoin="round"/>
<path d="M479.21 267.756C488.11 251.782 494.51 235.113 494.679 216.83C494.848 198.547 487.471 179.524 472.562 168.942C466.172 164.498 458.775 161.718 451.039 160.855C443.303 159.992 435.475 161.072 428.262 163.999C404.083 174.087 393.344 201.775 385.162 226.672C376.98 251.569 366.408 279.272 342.329 289.593C309.113 303.829 270 276.578 235.5 287.3C216.119 293.319 202.23 310.213 191.569 327.476C180.908 344.739 172.008 363.537 157.369 377.576C142.73 391.615 120.052 399.917 101.858 390.961" stroke="#171717" stroke-width="3.363" stroke-linecap="round" stroke-linejoin="round"/>
<path d="M451.893 265.514C453.983 266.261 456.121 266.868 458.293 267.33C460.712 267.865 463.165 268.229 465.636 268.418C470.174 268.78 474.74 268.626 479.244 267.958C494.532 265.562 508.677 258.407 519.667 247.511C537.177 230.181 546.212 205.755 549.541 181.329C552.87 156.903 551.021 132.129 549.687 107.512C549.541 104.833 549.507 101.863 551.267 99.8451C551.548 99.5266 551.864 99.2408 552.209 98.993C553.92 97.963 555.845 97.3415 557.836 97.1771C568.732 95.4617 579.632 93.7504 590.536 92.043C590.559 92.043 590.57 92.032 590.592 92.032C594.179 91.471 597.957 90.944 601.387 92.144C606.039 93.769 609.133 98.3771 610.277 103.163C611.421 107.949 610.938 112.963 610.4 117.848C605.961 158.192 598.5 198.782 580.974 235.382C564.182 270.482 537.222 301.868 502.035 318.189C500.522 318.895 498.986 319.568 497.435 320.218" stroke="#171717" stroke-width="3.363" stroke-linecap="round" stroke-linejoin="round"/>
<path d="M502.191 318.514C504.579 332.055 507.553 345.331 511.114 358.342C517.122 380.158 524.735 401.5 533.892 422.193C536.112 427.215 538.365 433.268 535.392 437.887C532.859 441.833 527.635 442.853 522.983 443.481C520.719 443.781 518.465 444.086 516.201 444.366C480.21 448.928 443.97 451.249 407.691 451.316C402.219 451.339 396.745 451.302 391.268 451.204C388.802 451.159 386.157 451.047 384.168 449.59C380.032 446.53 381.368 440.14 383.014 435.264C392.544 407.514 398.422 378.642 400.501 349.375" stroke="#171717" stroke-width="3.363" stroke-linecap="round" stroke-linejoin="round"/>
<path d="M407.691 451.686C407.871 455.52 408.004 459.35 408.091 463.176C410.299 560.185 381.849 654.404 324.242 732.838C324.231 732.85 324.22 732.872 324.208 732.883" stroke="#171717" stroke-width="3.363" stroke-linecap="round" stroke-linejoin="round"/>
<path d="M472.428 512.555C472.618 513.934 472.809 515.302 472.977 516.68C479.483 568.348 472.692 620.822 453.248 669.133C433.317 718.423 415.841 749.205 373.939 781.881C373.916 781.904 373.894 781.915 373.872 781.937" stroke="#171717" stroke-width="3.363" stroke-linecap="round" stroke-linejoin="round"/>
<path d="M516.236 444.59C559.136 463.625 599.236 488.443 629.32 524.46C656.963 557.56 674.013 598.209 682.69 640.66C685.729 655.627 687.781 670.778 688.833 686.015C692.933 744.215 686.277 802.915 674.944 860.148" stroke="#171717" stroke-width="3.363" stroke-linecap="round" stroke-linejoin="round"/>
<path d="M473.067 516.669C535.135 538.969 586.308 589.757 609.053 651.657C615.212 668.478 619.304 685.985 621.238 703.794C626.506 751.48 616.776 800.915 592.838 842.571C596.986 843.468 601.134 844.368 605.281 845.271C626.043 849.789 646.814 854.307 667.596 858.824C669.984 859.34 672.36 859.866 674.748 860.382" stroke="#171717" stroke-width="3.363" stroke-linecap="round" stroke-linejoin="round"/>
<path d="M605.264 845.4C600.006 858.246 594.939 870.823 589.671 883.67C588.897 885.576 588.102 887.683 588.718 889.645C589.492 892.088 592.104 893.378 594.469 894.386C597.977 895.877 602.169 897.346 605.421 895.35C607.021 894.189 608.298 892.638 609.131 890.844C612.698 884.417 615.771 877.728 618.323 870.835" stroke="#171717" stroke-width="3.363" stroke-linecap="round" stroke-linejoin="round"/>
<path d="M616.4 865.652C617.005 867.4 617.667 869.116 618.407 870.797C625.459 887.064 638.319 900.12 654.477 907.417C670.635 914.715 688.932 915.731 705.798 910.267C688.681 897.801 674.769 878.867 667.573 858.959" stroke="#171717" stroke-width="3.363" stroke-linecap="round" stroke-linejoin="round"/>
<path d="M416.816 290.96C433.533 312.736 447.653 336.388 458.887 361.436C459.01 361.683 459.111 361.918 459.223 362.165" stroke="#171717" stroke-width="3.363" stroke-linecap="round" stroke-linejoin="round"/>
<path d="M465.6 268.8C461.354 299.432 459.253 330.323 459.312 361.247" stroke="#171717" stroke-width="3.363" stroke-linecap="round" stroke-linejoin="round"/>
<path d="M423.846 282.508C424.551 287.766 427.146 292.587 431.146 296.072C435.246 299.738 441.134 301.554 446.459 300.152C452.703 298.505 457.265 292.732 458.935 286.488C460.605 280.244 459.799 273.608 458.296 267.33V267.308" stroke="#171717" stroke-width="3.363" stroke-linecap="round" stroke-linejoin="round"/>
<path d="M438.889 214.868C439.836 214.202 440.911 213.741 442.046 213.513C443.18 213.286 444.35 213.297 445.481 213.546" stroke="#171717" stroke-width="2.242" stroke-linecap="round" stroke-linejoin="round"/>
<path d="M455.5 210.373C456.509 209.947 457.6 209.748 458.695 209.79C459.789 209.833 460.861 210.116 461.834 210.62" stroke="#171717" stroke-width="2.242" stroke-linecap="round" stroke-linejoin="round"/>
<path d="M451.735 204.242C453.271 202.618 455.311 201.561 457.523 201.243C459.735 200.926 461.99 201.366 463.92 202.493" stroke="#171717" stroke-width="2.242" stroke-linecap="round" stroke-linejoin="round"/>
<path d="M452.654 219.33C453.046 220.821 455.232 220.765 456.398 221.785C456.838 222.25 457.127 222.837 457.229 223.468C457.331 224.1 457.241 224.747 456.97 225.327C456.408 226.472 455.613 227.487 454.638 228.309C454.838 228.141 455.038 227.961 455.232 227.782" stroke="#171717" stroke-width="2.242" stroke-linecap="round" stroke-linejoin="round"/>
<path d="M448.831 243.79C448.289 244.272 447.613 244.578 446.893 244.666C446.173 244.755 445.443 244.622 444.801 244.285C444.158 243.948 443.633 243.424 443.296 242.782C442.959 242.14 442.825 241.41 442.913 240.69" stroke="#171717" stroke-width="2.242" stroke-linecap="round" stroke-linejoin="round"/>
<path d="M552.006 98.735C545.009 98.1396 538.243 95.9419 532.232 92.312C531.76 92.1063 531.339 91.7986 531 91.4109C530.66 91.0233 530.411 90.5654 530.27 90.07C530.07 88.47 531.896 87.447 533.431 86.987C540.443 84.8752 547.879 84.5936 555.031 86.169C555.087 86.18 555.131 86.192 555.188 86.203" stroke="#171717" stroke-width="3.363" stroke-linecap="round" stroke-linejoin="round"/>
<path d="M555.369 88.232C555.257 87.548 555.134 86.864 555.033 86.169C552.789 72.2822 551.537 58.2529 551.289 44.188C551.182 42.9337 551.334 41.6708 551.737 40.478C551.946 39.8845 552.326 39.366 552.828 38.9871C553.331 38.6082 553.934 38.386 554.562 38.348C556.49 38.393 557.533 40.579 558.115 42.429C561.815 54.152 564.743 66.1045 566.881 78.21C566.937 78.502 566.981 78.793 567.038 79.085" stroke="#171717" stroke-width="3.363" stroke-linecap="round" stroke-linejoin="round"/>
<path d="M566.859 81.394C566.859 80.329 566.87 79.275 566.881 78.21C566.971 65.7434 567.48 53.293 568.406 40.859C568.54 39.043 569.336 36.633 571.152 36.835C572.52 36.992 573.152 38.584 573.462 39.929C576.562 52.8944 577.658 66.2579 576.712 79.555C576.712 79.634 576.701 79.701 576.701 79.779" stroke="#171717" stroke-width="3.363" stroke-linecap="round" stroke-linejoin="round"/>
<path d="M590.568 92.189C590.579 92.133 590.579 92.089 590.59 92.032C592.737 73.9029 592.086 55.5517 588.662 37.62C588.292 35.669 587.014 33.169 585.12 33.763C583.842 34.163 583.461 35.763 583.281 37.093C581.365 51.2617 579.452 65.4343 577.542 79.611" stroke="#171717" stroke-width="3.363" stroke-linecap="round" stroke-linejoin="round"/>
<path d="M511.247 358.309C525.831 343.871 539.765 329.018 554.304 314.243C560.985 307.461 567.789 300.69 574.852 293.987C584.94 285.019 598.392 281.656 610.723 287.261C617.449 290.624 621.933 296.229 627.538 300.713C685.828 360.125 742.998 413.932 801.289 473.343C803.531 476.706 806.894 478.943 809.136 483.432C811.347 487.772 812.499 492.574 812.499 497.444C812.499 502.315 811.347 507.117 809.136 511.457C802.41 522.666 792.321 529.392 784.474 538.357C783.959 538.873 783.443 539.388 782.927 539.893C767.749 555.015 752.571 569.139 737.393 584.317C718.793 603.452 700.737 622.06 682.693 640.657C663.748 660.174 644.815 679.679 625.299 699.778C623.942 701.134 622.589 702.472 621.241 703.791C610.255 714.591 599.281 724.675 588.306 735.649C574.855 750.222 560.282 764.794 546.83 779.367C517.225 808.972 488.909 837.288 459.93 866.747C450.504 876.332 440.983 886.066 431.368 895.947C419.037 909.398 397.738 912.761 384.286 899.31C320.386 835.41 257.616 776.002 195.962 712.11C189.236 700.901 189.236 684.086 200.121 673.728" stroke="#171717" stroke-width="3.363" stroke-linecap="round" stroke-linejoin="round"/>
<path d="M200.12 673.729C210.624 662.979 221.143 652.225 231.676 641.467C290.067 581.82 348.964 522.128 407.938 463.176" stroke="#171717" stroke-width="3.363" stroke-linecap="round" stroke-linejoin="round"/>
<path d="M100.376 391.837C103.712 399.686 108.668 406.743 114.918 412.545C121.169 418.348 128.574 422.766 136.649 425.51C144.724 428.255 153.288 429.264 161.779 428.472C170.271 427.681 178.501 425.105 185.929 420.915C208.029 408.439 220.929 383.026 243.805 372.052C269.912 359.519 302.824 368.745 328.45 355.473C328.75 355.327 329.044 355.159 329.35 355.002" stroke="#171717" stroke-width="3.363" stroke-linecap="round" stroke-linejoin="round"/>
<path d="M554.539 314.478L782.625 539.593" stroke="#171717" stroke-width="3.363" stroke-linecap="round" stroke-linejoin="round"/>
<path d="M231.743 641.535L324.246 732.838L373.939 781.881L459.828 866.649" stroke="#171717" stroke-width="3.363" stroke-linecap="round" stroke-linejoin="round"/>
<path d="M329.279 797.283C326.696 799.899 323.394 801.689 319.793 802.429C316.191 803.169 312.451 802.824 309.046 801.438C305.64 800.052 302.722 797.688 300.66 794.644C298.598 791.599 297.485 788.012 297.461 784.336C297.438 780.659 298.505 777.058 300.528 773.988C302.551 770.918 305.439 768.516 308.826 767.087C312.214 765.658 315.949 765.265 319.56 765.959C323.17 766.652 326.494 768.401 329.111 770.983C332.621 774.449 334.61 779.166 334.641 784.098C334.673 789.03 332.744 793.773 329.279 797.283V797.283Z" stroke="#171717" stroke-width="3.363" stroke-linecap="round" stroke-linejoin="round"/>
<path d="M660.047 389.169C659.568 389.655 658.956 389.987 658.288 390.125C657.62 390.263 656.926 390.199 656.294 389.943C655.662 389.686 655.121 389.248 654.738 388.684C654.355 388.119 654.148 387.454 654.144 386.772C654.139 386.09 654.336 385.422 654.711 384.852C655.086 384.283 655.622 383.837 656.25 383.572C656.878 383.306 657.571 383.233 658.241 383.362C658.91 383.49 659.527 383.814 660.013 384.293C660.663 384.935 661.032 385.81 661.039 386.724C661.045 387.638 660.688 388.518 660.047 389.169V389.169Z" stroke="#171717" stroke-width="3.363" stroke-linecap="round" stroke-linejoin="round"/>
<path d="M699.2 431.867L669.538 402.587C669.322 402.375 669.149 402.122 669.031 401.843C668.913 401.563 668.851 401.264 668.849 400.961C668.847 400.657 668.905 400.357 669.019 400.076C669.134 399.795 669.303 399.54 669.516 399.325L670.077 398.765C670.289 398.548 670.542 398.376 670.821 398.258C671.1 398.139 671.4 398.077 671.703 398.075C672.006 398.073 672.307 398.131 672.588 398.245C672.868 398.36 673.124 398.528 673.339 398.742L703 428.022C703.216 428.234 703.389 428.487 703.507 428.766C703.625 429.045 703.687 429.345 703.689 429.648C703.691 429.952 703.634 430.252 703.519 430.533C703.405 430.813 703.236 431.069 703.022 431.284L702.462 431.845C702.25 432.061 701.997 432.234 701.718 432.352C701.439 432.47 701.139 432.532 700.836 432.534C700.532 432.536 700.232 432.478 699.951 432.364C699.671 432.249 699.415 432.081 699.2 431.867V431.867Z" stroke="#171717" stroke-width="3.363" stroke-linecap="round" stroke-linejoin="round"/>
<path d="M701.937 406.522C701.266 407.201 700.408 407.666 699.472 407.858C698.537 408.05 697.565 407.96 696.681 407.6C695.796 407.24 695.038 406.626 694.502 405.835C693.967 405.044 693.677 404.112 693.671 403.157C693.665 402.202 693.942 401.267 694.467 400.469C694.992 399.671 695.742 399.047 696.622 398.675C697.502 398.304 698.472 398.201 699.41 398.381C700.348 398.56 701.212 399.014 701.892 399.684C702.345 400.13 702.705 400.66 702.952 401.245C703.199 401.831 703.328 402.459 703.332 403.094C703.337 403.729 703.215 404.358 702.976 404.947C702.737 405.535 702.384 406.07 701.937 406.522Z" stroke="#171717" stroke-width="3.363" stroke-linecap="round" stroke-linejoin="round"/>
<path d="M556.513 347.637L577.532 368.386" stroke="#171717" stroke-width="3.363" stroke-linecap="round" stroke-linejoin="round"/>
<path d="M548.632 355.618L569.661 376.368" stroke="#171717" stroke-width="3.363" stroke-linecap="round" stroke-linejoin="round"/>
<path d="M540.764 363.6L561.782 384.349" stroke="#171717" stroke-width="3.363" stroke-linecap="round" stroke-linejoin="round"/>
<path d="M750.12 364.937L790.475 362.564" stroke="#171717" stroke-width="3.363" stroke-linecap="round" stroke-linejoin="round"/>
<path d="M735.877 357.024L812.631 292.931" stroke="#171717" stroke-width="3.363" stroke-linecap="round" stroke-linejoin="round"/>
<path d="M720.842 349.112L730.338 323" stroke="#171717" stroke-width="3.363" stroke-linecap="round" stroke-linejoin="round"/>
<path d="M758.824 398.962L779.397 402.919" stroke="url(#paint5_linear_38_4079)" stroke-width="3.363" stroke-linecap="round" stroke-linejoin="round"/>
<path d="M769.902 387.093L768.319 410.041" stroke="url(#paint6_linear_38_4079)" stroke-width="3.363" stroke-linecap="round" stroke-linejoin="round"/>
<path d="M507.989 187.691L526.188 197.978" stroke="url(#paint7_linear_38_4079)" stroke-width="3.363" stroke-linecap="round" stroke-linejoin="round"/>
<path d="M522.232 181.361L514.319 200.352" stroke="url(#paint8_linear_38_4079)" stroke-width="3.363" stroke-linecap="round" stroke-linejoin="round"/>
<path d="M375.847 139.423L399.584 125.972" stroke="#171717" stroke-width="3.363" stroke-linecap="round" stroke-linejoin="round"/>
<path d="M380.593 122.015L393.253 141.796" stroke="#171717" stroke-width="3.363" stroke-linecap="round" stroke-linejoin="round"/>
<path d="M95.3223 679.178C97.2973 668.378 109.8 661.924 120.666 663.512C131.532 665.1 140.601 672.712 147.538 681.223C158.833 695.139 166.004 711.94 168.238 729.723C169.916 743.268 168.482 757.653 161.381 769.308C154.28 780.963 140.731 789.225 127.197 787.469C113.663 785.713 101.997 772.154 104.61 758.759C106.454 749.313 114.385 742.074 123.093 737.977C133.393 733.13 146.432 732.077 155.593 738.83C166.366 746.767 168.085 762.589 164.52 775.488C160.955 788.387 153.3 799.749 148.433 812.215C143.566 824.681 141.895 839.827 149.759 850.654C155.71 858.848 166.267 862.921 176.39 862.632C186.513 862.343 196.206 858.158 204.604 852.497C208.646 849.772 212.546 846.585 214.925 842.33C217.304 838.075 217.9 832.551 215.368 828.386C212.376 823.462 205.658 821.698 200.118 823.276C194.578 824.854 190.163 829.145 187.018 833.97C175.918 851.004 180.206 876.27 196.305 888.683C212.404 901.096 237.929 898.827 251.582 883.761" stroke="url(#paint9_linear_38_4079)" stroke-width="3.363" stroke-linecap="round" stroke-linejoin="round"/>
<path d="M94.2523 294.089C78.3453 298.544 63.7523 310.345 59.6203 326.338C55.4883 342.331 64.6132 361.657 80.6582 365.585C96.2002 369.391 111.464 358.95 123.138 348.006C135.338 336.571 146.951 322.648 148.352 305.986C148.861 299.929 147.873 293.553 144.428 288.545C140.983 283.537 134.785 280.197 128.793 281.22C119.993 282.72 114.85 293.728 118.093 302.05C121.336 310.372 131.045 315.073 139.918 314.05C148.791 313.027 156.588 307.159 161.645 299.796C166.702 292.433 169.337 283.682 171.175 274.942C173.013 266.202 174.133 257.299 176.535 248.696" stroke="#171717" stroke-width="3.363" stroke-linecap="round" stroke-linejoin="round"/>
<path d="M815.789 646.6C804.215 645.205 792.475 646.53 781.503 650.471C770.531 654.412 760.63 660.859 752.589 669.3C745.933 676.41 740.489 686.429 743.765 695.6C747.19 705.194 758.505 709.369 768.65 710.292C781.487 711.445 794.408 709.368 806.236 704.25C814.236 700.779 822.719 693.416 820.436 685.003C818.736 678.759 811.408 675.434 804.977 676.137C798.546 676.84 792.884 680.554 787.626 684.325C774.492 693.747 761.54 704.991 756.265 720.27C750.99 735.549 756.422 755.554 771.492 761.4C783.139 765.919 797.14 761.172 808.278 766.83C816.216 770.861 820.998 779.693 821.743 788.565C822.488 797.437 819.67 806.292 815.49 814.152C809.399 825.334 800.651 834.847 790.017 841.852C779.383 848.857 767.19 853.139 754.511 854.321C749.034 854.776 743.311 854.591 738.365 852.188C733.419 849.785 729.465 844.714 729.765 839.227C730.128 832.727 735.965 827.952 741.727 824.927C752.627 819.226 764.89 816.649 777.162 817.478C788.288 818.249 801.013 823.878 802.701 834.9C803.692 841.37 800.467 847.733 796.674 853.068C785.801 868.239 769.89 879.053 751.781 883.578" stroke="#171717" stroke-width="3.363" stroke-linecap="round" stroke-linejoin="round"/>
<path d="M482.936 108.894C483.798 106.481 484.184 103.925 484.073 101.365C484.004 100.086 483.622 98.8429 482.96 97.7456C482.299 96.6484 481.378 95.7303 480.279 95.072C477.289 93.524 473.456 94.872 471.135 97.309C468.814 99.746 467.657 103.041 466.563 106.226C464.478 102.761 462.263 99.162 458.805 97.064C455.347 94.966 450.266 94.945 447.765 98.123C445.933 100.453 445.984 103.841 447.127 106.575C448.27 109.309 450.327 111.541 452.351 113.709C455.351 116.934 467.066 133.377 471.703 132.371C476.6 131.31 481.735 112.88 482.936 108.894Z" fill="#171717"/>
<path d="M228.636 463.984C228.272 460.269 227.736 456.44 225.785 453.26C223.834 450.08 220.093 447.709 216.437 448.46C212.597 449.249 210.077 453.221 209.678 457.121C209.279 461.021 210.528 464.88 211.763 468.602C209.026 464.331 202.019 464.342 198.597 468.086C195.175 471.83 195.28 477.948 198.006 482.226C202.394 489.111 215.83 493.926 223.596 490.252C232.723 485.934 229.434 472.167 228.636 463.984Z" fill="url(#paint10_linear_38_4079)"/>
<path d="M703.237 272.599L721.436 282.886" stroke="url(#paint11_linear_38_4079)" stroke-width="3.363" stroke-linecap="round" stroke-linejoin="round"/>
<path d="M717.479 266.269L709.567 285.259" stroke="url(#paint12_linear_38_4079)" stroke-width="3.363" stroke-linecap="round" stroke-linejoin="round"/>
<path d="M715.633 164.194L739.372 150.742" stroke="#171717" stroke-width="3.363" stroke-linecap="round" stroke-linejoin="round"/>
<path d="M720.381 146.786L733.042 166.568" stroke="#171717" stroke-width="3.363" stroke-linecap="round" stroke-linejoin="round"/>
<path d="M202.159 529.523L225.898 516.072" stroke="#171717" stroke-width="3.363" stroke-linecap="round" stroke-linejoin="round"/>
<path d="M206.908 512.115L219.568 531.896" stroke="#171717" stroke-width="3.363" stroke-linecap="round" stroke-linejoin="round"/>
<path d="M774.755 187.836L773.124 198.872L781.291 206.472L770.291 208.331L765.586 218.447L760.418 208.56L749.344 207.211L757.15 199.241L755.012 188.292L765.003 193.254L774.755 187.836Z" fill="#171717"/>
<path d="M387.085 422.85C391.019 418.966 395.021 415.085 399.677 412.102C404.333 409.119 409.738 407.06 415.266 407.202C422.723 407.388 429.435 411.44 436.357 414.219C445.643 417.946 456.419 419.379 465.544 415.274C470.696 412.956 474.944 409.064 479.572 405.824C484.2 402.584 489.661 399.888 495.272 400.524C499.072 400.956 502.515 402.871 505.799 404.824C509.083 406.777 512.399 408.845 516.139 409.641C519.879 410.437 524.198 409.697 526.67 406.783" stroke="#171717" stroke-width="3.363" stroke-linecap="round" stroke-linejoin="round"/>
<path d="M394.601 393.517C399.285 388.217 404.047 382.856 409.976 379.003C415.905 375.15 423.25 372.932 430.126 374.581C437.574 376.366 443.343 382.299 450.507 385.006C456.371 387.195 462.841 387.126 468.658 384.813C475.215 382.174 480.502 376.823 487.258 374.755C492.258 373.224 497.694 373.639 502.736 375.03C507.733 376.582 512.574 378.601 517.193 381.061" stroke="#171717" stroke-width="3.363" stroke-linecap="round" stroke-linejoin="round"/>
<path d="M399.254 362.827C405.111 358.505 410.748 354.621 417.54 352.001C424.332 349.381 431.924 348.34 438.94 350.28C444.76 351.89 449.98 355.467 455.946 356.397" stroke="#171717" stroke-width="3.363" stroke-linecap="round" stroke-linejoin="round"/>
<path d="M459.733 355.269C464.821 357.109 470.504 355.335 475.308 352.844C480.112 350.353 484.622 347.111 489.864 345.772C492.986 344.998 496.241 344.923 499.395 345.553C502.55 346.184 505.526 347.503 508.11 349.418" stroke="#171717" stroke-width="3.363" stroke-linecap="round" stroke-linejoin="round"/>
<path d="M472.977 516.68C479.483 568.348 472.692 620.822 453.248 669.133C433.317 718.423 415.841 749.205 373.939 781.881L324.246 732.838C381.853 654.4 410.3 560.185 408.1 463.176C408.01 459.354 407.877 455.524 407.7 451.686V451.316C443.979 451.25 480.22 448.928 516.211 444.366L516.245 444.59C559.145 463.625 599.245 488.443 629.329 524.46C656.972 557.56 674.022 598.209 682.699 640.66C663.754 660.176 644.821 679.681 625.299 699.78C623.943 701.136 622.591 702.474 621.242 703.793C619.308 685.984 615.216 668.477 609.057 651.656C586.312 589.756 535.139 538.965 473.071 516.668L472.977 516.68Z" fill="#171717"/>
<path fill-rule="evenodd" clip-rule="evenodd" d="M707.424 193.179C711.086 198.597 707.94 205.958 704.086 211.238C698.578 218.782 680.39 240.7 670.07 240.41C661.298 240.16 652.913 220.345 648.381 209.634C647.612 207.817 646.955 206.263 646.424 205.11C643.737 199.255 641.295 192.332 644.224 186.592C647.827 179.531 658.122 178.381 665.075 182.187C672.028 185.993 676.371 193.163 680.265 200.063C683.907 196.051 687.728 191.911 692.759 189.895C697.79 187.879 704.393 188.687 707.424 193.179ZM697.545 193.953C696.805 193.393 695.75 193.539 695.19 194.28C694.63 195.021 694.776 196.075 695.517 196.635C696.76 197.575 697.61 198.943 697.903 200.474C698.196 202.004 697.911 203.589 697.103 204.922C696.621 205.716 696.874 206.75 697.668 207.232C698.462 207.713 699.496 207.46 699.978 206.666C701.218 204.622 701.656 202.19 701.206 199.842C700.757 197.493 699.453 195.395 697.545 193.953Z" fill="url(#paint13_linear_38_4079)"/>
<g opacity="0.1">
<path d="M278.94 478.686C282.107 478.814 283.972 476.624 285.55 474.142C287.89 470.461 289.89 466.442 291.95 462.598C296.128 454.818 300.006 446.857 303.843 438.904C311.278 423.491 318.918 408.188 326.6 392.896C333.78 378.602 340.789 363.879 349.651 350.528C353.304 344.829 357.777 339.699 362.926 335.305C368.595 330.626 375.526 327.721 382.226 324.873C396.461 318.829 414.098 307.84 415.203 290.702C415.647 283.802 406.008 281.946 402.711 287.318C399.066 293.26 395.386 297.434 389.235 300.861C382.686 304.511 375.276 306.825 368.424 309.861C353.565 316.443 342.44 326.701 333.444 340.14C324.559 353.413 317.612 368.119 310.482 382.377C302.607 398.122 295.522 414.236 288.715 430.468C284.872 439.462 281.505 448.652 278.629 458C277.516 461.713 270.548 478.346 278.94 478.687V478.686Z" fill="#171717"/>
</g>
<g opacity="0.1">
<path d="M399.192 353.039C397.467 360.054 397.046 367.483 395.882 374.619C394.695 381.894 393.264 389.181 391.897 396.43C389.206 411.101 385.408 425.547 380.535 439.645C376.486 451.177 395.07 456.35 398.886 444.704C403.845 429.774 407.317 414.391 409.253 398.779C410.106 391.399 410.384 383.964 410.086 376.541C409.834 368.826 409.593 360.485 407.437 353.041C406.292 349.089 400.221 348.856 399.192 353.041V353.039Z" fill="#171717"/>
</g>
<g opacity="0.1">
<path d="M328.093 848.068C337.062 855.957 346.074 863.068 353.945 872.184C361.938 881.442 369.695 890.59 380.113 897.263C391.163 904.34 404.751 907.387 417.342 902.757C428.914 898.502 437.589 889.625 446.061 881.032C484.453 842.093 523.153 803.462 561.775 764.752C583.33 743.147 604.852 721.509 626.339 699.837C634.666 691.424 621.684 678.428 613.345 686.844C576.216 724.319 538.97 761.677 501.607 798.92C483.207 817.338 464.814 835.762 446.429 854.192C438.015 862.623 429.946 871.92 420.658 879.407C412.258 886.179 402.852 888.016 392.7 884.02C380.823 879.346 371.75 869.793 362.675 861.202C353.85 852.849 343.359 842.574 330.414 842.467C327.696 842.444 325.914 846.155 328.093 848.067V848.068Z" fill="#171717"/>
</g>
<g opacity="0.1">
<path d="M687.208 637.723C714.433 608.455 743.564 581.055 771.008 552.011C777.92 544.697 784.743 537.299 791.477 529.817C797.077 523.626 803.259 517.517 807.39 510.192C815.79 495.292 809.541 481.729 798.66 470.257C792.372 463.627 785.327 457.757 778.622 451.57C775.254 448.576 772.13 445.319 769.278 441.83C767.805 439.956 766.759 437.863 765.392 435.937C763.992 433.963 762.053 432.795 760.438 431.037C758.966 429.431 756.451 430.762 756.357 432.727C756.187 436.3 755.962 438.94 757.821 442.14C759.905 445.575 762.353 448.776 765.121 451.687C770.421 457.451 776.552 462.408 782.33 467.673C792.277 476.738 807.775 489.031 799.656 503.88C795.656 511.198 789.11 517.101 783.313 522.98C776.693 529.694 770.009 536.343 763.26 542.926C749.815 556.086 736.683 569.589 723.396 582.909C708.245 598.099 693.171 613.367 678.521 629.042C673.127 634.813 681.81 643.527 687.205 637.726L687.208 637.723Z" fill="#171717"/>
</g>
</g>
<defs>
<linearGradient id="paint0_linear_38_4079" x1="442.312" y1="91.4198" x2="442.312" y2="482.954" gradientUnits="userSpaceOnUse">
<stop stop-color="#4A9FFF"/>
<stop offset="1" stop-color="#2A67F7"/>
</linearGradient>
<linearGradient id="paint1_linear_38_4079" x1="683.402" y1="284.521" x2="683.402" y2="539.893" gradientUnits="userSpaceOnUse">
<stop stop-color="#4A9FFF"/>
<stop offset="1" stop-color="#2A67F7"/>
</linearGradient>
<linearGradient id="paint2_linear_38_4079" x1="647.144" y1="845.275" x2="647.144" y2="913.74" gradientUnits="userSpaceOnUse">
<stop stop-color="#4A9FFF"/>
<stop offset="1" stop-color="#2A67F7"/>
</linearGradient>
<linearGradient id="paint3_linear_38_4079" x1="325.636" y1="641.468" x2="325.636" y2="907.875" gradientUnits="userSpaceOnUse">
<stop stop-color="#4A9FFF"/>
<stop offset="1" stop-color="#2A67F7"/>
</linearGradient>
<linearGradient id="paint4_linear_38_4079" x1="316.051" y1="765.625" x2="316.051" y2="802.829" gradientUnits="userSpaceOnUse">
<stop stop-color="#4A9FFF"/>
<stop offset="1" stop-color="#2A67F7"/>
</linearGradient>
<linearGradient id="paint5_linear_38_4079" x1="769.111" y1="398.962" x2="769.111" y2="402.919" gradientUnits="userSpaceOnUse">
<stop stop-color="#4A9FFF"/>
<stop offset="1" stop-color="#2A67F7"/>
</linearGradient>
<linearGradient id="paint6_linear_38_4079" x1="769.111" y1="387.093" x2="769.111" y2="410.041" gradientUnits="userSpaceOnUse">
<stop stop-color="#4A9FFF"/>
<stop offset="1" stop-color="#2A67F7"/>
</linearGradient>
<linearGradient id="paint7_linear_38_4079" x1="517.089" y1="187.691" x2="517.089" y2="197.978" gradientUnits="userSpaceOnUse">
<stop stop-color="#4A9FFF"/>
<stop offset="1" stop-color="#2A67F7"/>
</linearGradient>
<linearGradient id="paint8_linear_38_4079" x1="518.276" y1="181.361" x2="518.276" y2="200.352" gradientUnits="userSpaceOnUse">
<stop stop-color="#4A9FFF"/>
<stop offset="1" stop-color="#2A67F7"/>
</linearGradient>
<linearGradient id="paint9_linear_38_4079" x1="173.452" y1="663.273" x2="173.452" y2="896.702" gradientUnits="userSpaceOnUse">
<stop stop-color="#4A9FFF"/>
<stop offset="1" stop-color="#2A67F7"/>
</linearGradient>
<linearGradient id="paint10_linear_38_4079" x1="212.93" y1="448.32" x2="212.93" y2="491.519" gradientUnits="userSpaceOnUse">
<stop stop-color="#4A9FFF"/>
<stop offset="1" stop-color="#2A67F7"/>
</linearGradient>
<linearGradient id="paint11_linear_38_4079" x1="712.337" y1="272.599" x2="712.337" y2="282.886" gradientUnits="userSpaceOnUse">
<stop stop-color="#4A9FFF"/>
<stop offset="1" stop-color="#2A67F7"/>
</linearGradient>
<linearGradient id="paint12_linear_38_4079" x1="713.523" y1="266.269" x2="713.523" y2="285.259" gradientUnits="userSpaceOnUse">
<stop stop-color="#4A9FFF"/>
<stop offset="1" stop-color="#2A67F7"/>
</linearGradient>
<linearGradient id="paint13_linear_38_4079" x1="675.972" y1="180.046" x2="675.972" y2="240.413" gradientUnits="userSpaceOnUse">
<stop stop-color="#4A9FFF"/>
<stop offset="1" stop-color="#2A67F7"/>
</linearGradient>
<clipPath id="clip0_38_4079">
<rect width="960" height="960" fill="white"/>
</clipPath>
</defs>
</svg>
