<svg width="759" height="706" viewBox="0 0 759 706" fill="none" xmlns="http://www.w3.org/2000/svg">
<mask id="mask0_20_23" style="mask-type:alpha" maskUnits="userSpaceOnUse" x="0" y="0" width="759" height="706">
<path d="M298.104 5V210.5C298.104 212.5 300.771 214.667 302.104 215.5H457.604C460.004 215.5 460.938 212.167 461.104 210.5V6C461.104 2.8 458.104 1.33333 456.604 1H302.104C298.904 1 298.104 3.66667 298.104 5Z" fill="white"/>
<path fill-rule="evenodd" clip-rule="evenodd" d="M299.31 2.79215C298.784 3.52223 298.604 4.41334 298.604 5V210.5C298.604 211.299 299.153 212.219 299.97 213.097C300.72 213.902 301.616 214.589 302.25 215H457.604C458.53 215 459.231 214.366 459.75 213.39C460.26 212.432 460.522 211.264 460.604 210.475V6C460.604 4.57696 459.944 3.53974 459.09 2.80368C458.247 2.07681 457.232 1.66119 456.548 1.5H302.104C300.667 1.5 299.817 2.08757 299.31 2.79215ZM298.498 2.20785C299.191 1.24577 300.341 0.5 302.104 0.5H456.659L456.713 0.511906C457.529 0.693272 458.733 1.17517 459.743 2.04632C460.765 2.92693 461.604 4.22304 461.604 6V210.525L461.602 210.55C461.514 211.427 461.227 212.744 460.633 213.86C460.044 214.967 459.078 216 457.604 216H301.961L301.839 215.924C301.143 215.489 300.107 214.712 299.238 213.778C298.389 212.865 297.604 211.701 297.604 210.5V5C297.604 4.25332 297.824 3.14443 298.498 2.20785Z" fill="white"/>
<path d="M80.1043 172.5L2.1043 306.5C0.104303 308.9 1.27097 311.5 2.1043 312.5C416.104 579.5 752.104 313 755.604 310.5C758.404 308.5 757.771 306.333 757.104 305.5C731.771 262.333 680.704 175.1 679.104 171.5C677.504 167.9 674.438 168.333 673.104 169C360.104 396.5 89.6043 174 86.1043 171.5C83.3043 169.5 80.9376 171.333 80.1043 172.5Z" fill="white"/>
<path fill-rule="evenodd" clip-rule="evenodd" d="M673.363 169.43C366.962 392.103 101.23 183.976 86.4293 172.384C86.0961 172.123 85.8901 171.962 85.8136 171.907C84.5462 171.002 83.4227 170.983 82.5271 171.286C81.6126 171.596 80.8981 172.257 80.5242 172.772L2.51523 306.788L2.48835 306.82C1.58719 307.901 1.40823 309.007 1.5372 309.958C1.6632 310.887 2.08569 311.673 2.44202 312.123C409.134 574.358 740.461 321.429 754.854 310.441C755.101 310.253 755.255 310.135 755.314 310.093C756.625 309.156 757.07 308.23 757.158 307.502C757.248 306.757 756.975 306.138 756.714 305.812L756.691 305.784L756.673 305.753C744.006 284.17 724.906 251.569 708.772 223.914C700.706 210.087 693.38 197.496 687.971 188.136C685.267 183.456 683.041 179.584 681.441 176.768C679.851 173.969 678.86 172.182 678.647 171.703C677.906 170.034 676.86 169.358 675.893 169.137C674.916 168.915 673.953 169.144 673.363 169.43ZM676.115 168.162C677.415 168.459 678.703 169.366 679.561 171.297C679.748 171.718 680.703 173.444 682.311 176.274C683.909 179.086 686.133 182.957 688.837 187.636C694.245 196.994 701.57 209.584 709.636 223.411C725.762 251.052 744.852 283.634 757.518 305.217C757.915 305.729 758.275 306.597 758.151 307.623C758.022 308.687 757.383 309.844 755.895 310.907C755.836 310.949 755.682 311.066 755.435 311.255C741.023 322.256 409.138 575.602 1.83324 312.92L1.76904 312.879L1.72012 312.82C1.25194 312.258 0.706429 311.273 0.546274 310.092C0.384927 308.903 0.617338 307.522 1.69279 306.213L79.6838 172.228L79.6974 172.209C80.1605 171.561 81.04 170.734 82.2064 170.339C83.4025 169.934 84.8622 169.998 86.3949 171.093C86.4729 171.149 86.6817 171.312 87.0188 171.576C101.906 183.233 367.047 390.836 672.81 168.596L672.844 168.571L672.881 168.553C673.627 168.179 674.846 167.873 676.115 168.162Z" fill="white"/>
<path d="M193.104 445L91.6043 621.5C89.9941 624.3 91.6 626.667 92.6043 627.5C133.771 651.333 217.704 699.9 224.104 703.5C230.504 707.1 232.438 703.667 232.604 701.5C265.104 645.333 330.804 531.8 333.604 527C336.404 522.2 333.771 519.333 332.104 518.5C290.938 494.667 207.304 446.3 202.104 443.5C196.904 440.7 193.938 443.333 193.104 445Z" fill="white"/>
<path fill-rule="evenodd" clip-rule="evenodd" d="M196.13 443.048C194.773 443.516 193.917 444.492 193.551 445.224L193.545 445.237L92.0377 621.749C91.3072 623.02 91.3137 624.166 91.6012 625.089C91.8877 626.009 92.4583 626.718 92.8927 627.089C134.076 650.932 217.955 699.467 224.349 703.064C227.492 704.832 229.379 704.782 230.461 704.219C231.554 703.65 232.03 702.449 232.106 701.462L232.114 701.348L232.171 701.25C264.671 645.084 330.372 531.549 333.172 526.748C334.511 524.453 334.517 522.691 334.059 521.433C333.594 520.153 332.62 519.317 331.881 518.947L331.867 518.94L331.854 518.933C290.679 495.095 207.058 446.735 201.867 443.94C199.366 442.593 197.469 442.585 196.13 443.048ZM195.803 442.102C197.456 441.532 199.643 441.607 202.341 443.06C207.55 445.864 291.179 494.228 332.342 518.06C333.267 518.527 334.434 519.538 334.999 521.092C335.575 522.676 335.497 524.747 334.036 527.252C331.238 532.048 265.612 645.454 233.092 701.655C232.974 702.821 232.388 704.343 230.923 705.106C229.396 705.901 227.117 705.768 223.859 703.936C217.456 700.334 133.517 651.764 92.3537 627.933L92.3173 627.912L92.2849 627.885C91.7185 627.415 91.0046 626.536 90.6464 625.386C90.2825 624.218 90.2911 622.78 91.1708 621.251L192.664 444.763C193.135 443.83 194.177 442.664 195.803 442.102Z" fill="white"/>
<path d="M525.604 703.5C521.204 706.3 518.771 703.333 518.104 701.5C485.104 644.667 418.504 530 416.104 526C413.704 522 416.438 519.333 418.104 518.5C459.604 494.5 543.804 445.8 548.604 443C553.404 440.2 556.271 443.5 557.104 445.5C589.771 502 655.704 616.1 658.104 620.5C660.504 624.9 658.438 627.333 657.104 628C615.104 652 530.004 700.7 525.604 703.5Z" fill="white"/>
<path fill-rule="evenodd" clip-rule="evenodd" d="M557.553 445.277C557.098 444.204 556.108 442.79 554.569 442.005C552.979 441.193 550.881 441.093 548.352 442.568C543.554 445.367 459.372 494.057 417.867 518.06C416.961 518.516 415.773 519.461 415.126 520.851C414.46 522.283 414.396 524.124 415.675 526.257C418.073 530.252 484.64 644.864 517.65 701.714C518.021 702.704 518.86 704 520.231 704.685C521.662 705.4 523.558 705.395 525.873 703.922C530.259 701.131 615.325 652.45 657.341 628.441C658.115 628.049 659.057 627.174 659.482 625.797C659.914 624.399 659.792 622.551 658.543 620.261C656.14 615.854 590.221 501.78 557.553 445.277ZM554.114 442.895C552.863 442.257 551.128 442.107 548.856 443.432C544.055 446.233 459.854 494.933 418.355 518.933L418.341 518.94L418.328 518.947C417.568 519.327 416.565 520.13 416.033 521.274C415.515 522.384 415.413 523.876 416.533 525.743C418.935 529.747 485.539 644.419 518.537 701.249L518.559 701.287L518.574 701.329C518.879 702.167 519.585 703.244 520.678 703.79C521.73 704.316 523.251 704.405 525.336 703.078C529.749 700.27 614.868 651.559 656.856 627.566L656.868 627.559L656.881 627.553C657.437 627.274 658.187 626.601 658.526 625.503C658.861 624.418 658.816 622.849 657.665 620.739C655.269 616.347 589.342 502.257 556.671 445.75L556.655 445.722L556.643 445.692C556.258 444.769 555.402 443.552 554.114 442.895Z" fill="white"/>
</mask>
<g mask="url(#mask0_20_23)">
<path d="M-645.396 -414H1402.6V1121H-645.396V-414Z" fill="white"/>
</g>
</svg>
